<svg width="200" height="200" viewBox="0 0 200 200" fill="none" xmlns="http://www.w3.org/2000/svg">
<rect width="200" height="200" rx="35" fill="#2C62EA"/>
<path d="M102.669 109.463L102.669 90.7061" stroke="white" stroke-width="14" stroke-linecap="round"/>
<path d="M43.1934 111.405H157.28" stroke="white" stroke-width="14" stroke-linecap="round"/>
<path d="M63.3037 134.137L142.036 134.137C142.036 141.409 142.036 151.276 142.036 160" stroke="white" stroke-width="14" stroke-linecap="round" stroke-linejoin="round"/>
<path d="M48.5747 85.2826C65.6409 85.2826 84.4729 71.3075 87.1911 60.2062C92.4367 38.7826 72.8711 35.0105 67.4227 45.9791C59.1424 62.6486 81.8211 85.2826 102.187 85.2826C115.062 85.2826 130.943 77.0195 137.592 62.3576C145.904 44.0302 124.89 31.4474 117.621 47.7725C111.074 62.4753 127.387 85.2826 151.998 85.2826" stroke="white" stroke-width="14" stroke-linecap="round"/>
</svg>
